<svg width="325" height="62" fill="none" xmlns="http://www.w3.org/2000/svg"><path d="M54.651 44.286c-1.6 0-3.136-.234-4.608-.703-1.45-.491-2.613-1.142-3.488-1.953a1.468 1.468 0 0 1-.48-1.12c0-.298.086-.554.256-.767.171-.235.374-.352.608-.352.278 0 .576.117.896.352 1.984 1.535 4.246 2.303 6.784 2.303 1.835 0 3.243-.352 4.224-1.056.982-.704 1.472-1.706 1.472-3.008 0-.746-.234-1.343-.704-1.791-.469-.47-1.088-.843-1.856-1.12-.768-.278-1.802-.566-3.104-.864-1.749-.406-3.189-.833-4.32-1.28-1.109-.449-2.016-1.088-2.72-1.92-.682-.833-1.024-1.92-1.024-3.265 0-1.28.342-2.41 1.024-3.392.704-1.002 1.675-1.77 2.912-2.303 1.259-.555 2.688-.832 4.288-.832 1.494 0 2.88.234 4.16.704 1.302.447 2.39 1.098 3.264 1.951.342.342.512.715.512 1.12 0 .3-.085.566-.256.8-.17.214-.373.32-.608.32-.234 0-.544-.117-.928-.351-1.045-.854-2.016-1.451-2.912-1.793-.896-.34-1.973-.512-3.232-.512-1.77 0-3.146.374-4.128 1.12-.981.726-1.472 1.75-1.472 3.072 0 1.131.427 1.985 1.28 2.56.875.555 2.208 1.046 4 1.473 1.942.469 3.467.906 4.576 1.311 1.11.384 2.027.971 2.752 1.76.747.79 1.12 1.846 1.12 3.169 0 1.258-.352 2.367-1.056 3.328-.682.96-1.653 1.706-2.912 2.24-1.258.533-2.698.8-4.32.8zm14.438-.096c-.384 0-.704-.106-.96-.32-.234-.234-.352-.554-.352-.96V22.59c0-.405.118-.714.352-.927.256-.235.576-.352.96-.352.363 0 .662.117.896.352.256.213.384.522.384.927v20.32c0 .406-.128.726-.384.96-.234.214-.533.32-.896.32zm19.15-3.776c.234 0 .437.096.608.288.17.193.256.438.256.736 0 .534-.373 1.024-1.12 1.472-.768.449-1.579.79-2.432 1.025a10.27 10.27 0 0 1-2.496.32c-2.41 0-4.32-.715-5.728-2.145-1.387-1.429-2.08-3.402-2.08-5.92 0-1.6.31-3.008.928-4.223.618-1.238 1.483-2.198 2.592-2.88 1.13-.683 2.41-1.024 3.84-1.024 2.026 0 3.637.66 4.832 1.984 1.195 1.322 1.792 3.114 1.792 5.375 0 .427-.085.736-.256.928-.17.192-.448.288-.832.288H77.839c.192 3.67 1.93 5.505 5.216 5.505.832 0 1.546-.107 2.144-.32a15.551 15.551 0 0 0 1.92-.928c.555-.32.928-.48 1.12-.48zm-5.6-10.336c-1.365 0-2.464.427-3.296 1.28-.81.854-1.29 2.06-1.44 3.616h9.056c-.043-1.578-.438-2.783-1.184-3.615-.747-.854-1.792-1.28-3.136-1.28zm23.435 10.336c.235 0 .437.096.608.288.171.193.256.438.256.736 0 .534-.373 1.024-1.12 1.472a10.15 10.15 0 0 1-2.432 1.025c-.853.213-1.685.32-2.496.32-2.41 0-4.32-.715-5.728-2.145-1.387-1.429-2.08-3.402-2.08-5.92 0-1.6.31-3.008.928-4.223.618-1.238 1.483-2.198 2.592-2.88 1.13-.683 2.41-1.024 3.84-1.024 2.027 0 3.637.66 4.832 1.984 1.195 1.322 1.792 3.114 1.792 5.375 0 .427-.085.736-.256.928-.171.192-.448.288-.832.288H95.674c.192 3.67 1.93 5.505 5.216 5.505.832 0 1.547-.107 2.144-.32a15.592 15.592 0 0 0 1.92-.928c.555-.32.928-.48 1.12-.48zm-5.6-10.336c-1.365 0-2.464.427-3.296 1.28-.81.854-1.29 2.06-1.44 3.616h9.056c-.043-1.578-.437-2.783-1.184-3.615-.747-.854-1.792-1.28-3.136-1.28zm19.211-2.015c1.365 0 2.571.34 3.616 1.024 1.045.682 1.856 1.642 2.432 2.88.576 1.215.864 2.634.864 4.255 0 1.622-.288 3.04-.864 4.256-.576 1.195-1.387 2.123-2.432 2.785-1.024.66-2.229.992-3.616.992-1.216 0-2.283-.267-3.2-.8-.896-.534-1.579-1.291-2.048-2.273v7.52c0 .385-.117.683-.352.897-.213.234-.523.352-.928.352s-.725-.118-.96-.352c-.235-.235-.352-.534-.352-.896V29.405c0-.383.117-.693.352-.927.235-.235.555-.352.96-.352.405 0 .715.117.928.352.235.234.352.544.352.928v1.727c.469-.98 1.152-1.738 2.048-2.271.917-.534 1.984-.8 3.2-.8zm-.512 14.048c1.515 0 2.688-.512 3.52-1.536.832-1.025 1.248-2.475 1.248-4.353 0-1.877-.416-3.338-1.248-4.384-.832-1.066-2.005-1.6-3.52-1.6-1.515 0-2.688.512-3.52 1.537-.811 1.023-1.216 2.485-1.216 4.383 0 1.9.405 3.371 1.216 4.416.832 1.025 2.005 1.537 3.52 1.537zm31.579 2.208c-2.176 0-4.085-.47-5.728-1.409-1.621-.938-2.869-2.282-3.744-4.031-.875-1.75-1.312-3.798-1.312-6.145 0-2.346.437-4.384 1.312-6.112.875-1.749 2.123-3.093 3.744-4.032 1.643-.938 3.552-1.407 5.728-1.407 1.408 0 2.731.213 3.968.64a10.078 10.078 0 0 1 3.296 1.791c.277.214.469.438.576.672.107.235.16.523.16.864 0 .47-.128.865-.384 1.184-.256.32-.565.48-.928.48-.427 0-.864-.149-1.312-.448-.917-.682-1.771-1.151-2.56-1.407-.789-.278-1.664-.416-2.624-.416-2.219 0-3.904.693-5.056 2.08-1.131 1.386-1.696 3.424-1.696 6.111 0 2.71.565 4.758 1.696 6.145 1.152 1.386 2.837 2.08 5.056 2.08.917 0 1.76-.14 2.528-.417.789-.277 1.675-.746 2.656-1.407.213-.128.427-.235.64-.32a1.79 1.79 0 0 1 .672-.128c.363 0 .672.16.928.48.256.32.384.714.384 1.183 0 .32-.053.608-.16.864-.107.235-.299.46-.576.672-.96.79-2.059 1.398-3.296 1.825-1.237.405-2.56.608-3.968.608zm18.687-16.32c2.176 0 3.787.544 4.832 1.632 1.067 1.066 1.6 2.698 1.6 4.895v7.808c0 .576-.171 1.035-.512 1.377-.341.32-.811.48-1.408.48-.555 0-1.013-.171-1.376-.513-.341-.34-.512-.789-.512-1.343v-.705a4.155 4.155 0 0 1-1.728 1.953c-.768.469-1.664.703-2.688.703-1.045 0-1.995-.213-2.848-.64-.853-.426-1.525-1.013-2.016-1.76a4.444 4.444 0 0 1-.736-2.495c0-1.152.288-2.06.864-2.72.597-.662 1.557-1.142 2.88-1.44 1.323-.3 3.147-.449 5.472-.449h.8v-.735c0-1.046-.224-1.803-.672-2.272-.448-.491-1.173-.736-2.176-.736-.619 0-1.248.095-1.888.287-.64.171-1.397.427-2.272.768-.555.278-.96.416-1.216.416-.384 0-.704-.138-.96-.416-.235-.277-.352-.64-.352-1.088 0-.362.085-.672.256-.928.192-.277.501-.533.928-.767.747-.406 1.632-.726 2.656-.96a13.993 13.993 0 0 1 3.072-.352zm-.992 13.408c1.067 0 1.931-.352 2.592-1.056.683-.726 1.024-1.654 1.024-2.785v-.672h-.576c-1.429 0-2.539.065-3.328.193-.789.127-1.355.351-1.696.671-.341.32-.512.758-.512 1.313 0 .682.235 1.248.704 1.696.491.426 1.088.64 1.792.64zm14.433 2.816c-.576 0-1.056-.16-1.44-.48-.363-.342-.544-.822-.544-1.44V23.199c0-.62.181-1.089.544-1.409.384-.32.864-.48 1.44-.48s1.056.16 1.44.48c.384.32.576.79.576 1.409v19.104c0 .618-.192 1.098-.576 1.44-.384.32-.864.48-1.44.48zm14.045.063c-1.557 0-2.933-.33-4.128-.992a6.79 6.79 0 0 1-2.72-2.816c-.64-1.215-.96-2.634-.96-4.256 0-1.62.331-3.05.992-4.288.683-1.258 1.632-2.229 2.848-2.912 1.216-.682 2.613-1.023 4.192-1.023.832 0 1.664.117 2.496.352.853.234 1.6.554 2.24.96.683.448 1.024 1.013 1.024 1.695 0 .47-.117.854-.352 1.152a1.032 1.032 0 0 1-.864.416 1.91 1.91 0 0 1-.736-.16 6.44 6.44 0 0 1-.768-.383 7.584 7.584 0 0 0-1.344-.64c-.427-.171-.917-.256-1.472-.256-1.323 0-2.347.437-3.072 1.311-.704.854-1.056 2.091-1.056 3.712 0 1.6.352 2.838 1.056 3.712.725.854 1.749 1.28 3.072 1.28.533 0 1.003-.074 1.408-.224.427-.17.896-.394 1.408-.672.32-.191.597-.33.832-.415a1.69 1.69 0 0 1 .704-.16c.341 0 .629.149.864.447.235.3.352.672.352 1.12 0 .363-.085.683-.256.96-.149.256-.405.491-.768.704-.661.427-1.429.769-2.304 1.025a10.33 10.33 0 0 1-2.688.351zm21.993-16.224c.619 0 1.109.171 1.472.512.363.342.544.8.544 1.377v12.416c0 .554-.192 1.002-.576 1.344-.363.34-.843.511-1.44.511-.576 0-1.035-.16-1.376-.48-.341-.32-.512-.757-.512-1.311v-.8a5.214 5.214 0 0 1-1.984 1.983c-.832.449-1.771.672-2.816.672-3.84 0-5.76-2.154-5.76-6.464V29.95c0-.575.181-1.034.544-1.375.363-.342.843-.512 1.44-.512.619 0 1.109.17 1.472.512.363.34.544.8.544 1.376v7.904c0 1.109.224 1.93.672 2.464.448.533 1.152.8 2.112.8 1.109 0 1.995-.363 2.656-1.088.683-.747 1.024-1.728 1.024-2.944V29.95c0-.575.181-1.034.544-1.375.363-.342.843-.512 1.44-.512zm9.123 16.16c-.576 0-1.056-.16-1.44-.48-.362-.34-.544-.82-.544-1.44V23.199c0-.618.182-1.088.544-1.407.384-.32.864-.48 1.44-.48s1.056.16 1.44.48c.384.32.576.789.576 1.407v19.105c0 .618-.192 1.098-.576 1.44-.384.32-.864.48-1.44.48zm13.885-16.224c2.176 0 3.787.544 4.832 1.633 1.067 1.066 1.6 2.698 1.6 4.895v7.808c0 .576-.17 1.035-.512 1.377-.341.32-.81.48-1.408.48-.554 0-1.013-.171-1.376-.513-.341-.34-.512-.789-.512-1.343v-.705a4.144 4.144 0 0 1-1.728 1.953c-.768.469-1.664.703-2.688.703-1.045 0-1.994-.213-2.848-.64-.853-.426-1.525-1.013-2.016-1.76a4.452 4.452 0 0 1-.736-2.495c0-1.152.288-2.06.864-2.72.598-.662 1.558-1.142 2.88-1.44 1.323-.3 3.147-.449 5.472-.449h.8v-.735c0-1.046-.224-1.803-.672-2.272-.448-.491-1.173-.736-2.176-.736-.618 0-1.248.095-1.888.287-.64.171-1.397.427-2.272.768-.554.278-.96.416-1.216.416-.384 0-.704-.138-.96-.416-.234-.277-.352-.64-.352-1.088 0-.362.086-.672.256-.928.192-.277.502-.533.928-.767.747-.406 1.632-.726 2.656-.96a14.007 14.007 0 0 1 3.072-.352zm-.992 13.409c1.067 0 1.931-.352 2.592-1.056.683-.726 1.024-1.654 1.024-2.785v-.672h-.576c-1.429 0-2.538.065-3.328.193-.789.127-1.354.351-1.696.671-.341.32-.512.758-.512 1.313 0 .682.235 1.248.704 1.696.491.426 1.088.64 1.792.64zm20.578-.16c1.066.063 1.6.544 1.6 1.44 0 .512-.214.906-.64 1.184-.406.255-.992.362-1.76.32l-.864-.065c-3.584-.255-5.376-2.175-5.376-5.76V31.39h-1.6c-.576 0-1.024-.128-1.344-.384-.299-.256-.448-.629-.448-1.12 0-.49.149-.863.448-1.12.32-.255.768-.383 1.344-.383h1.6v-2.944c0-.576.181-1.035.544-1.377.362-.34.853-.512 1.472-.512.597 0 1.077.171 1.44.512.362.342.544.8.544 1.377v2.944h2.72c.576 0 1.013.128 1.312.384.32.256.48.629.48 1.12 0 .49-.16.863-.48 1.12-.299.255-.736.383-1.312.383h-2.72v7.264c0 1.58.725 2.422 2.176 2.528l.864.064zm11.78 3.04c-1.6 0-3.008-.331-4.224-.992-1.195-.662-2.123-1.611-2.784-2.849-.661-1.237-.992-2.677-.992-4.32 0-1.642.331-3.072.992-4.287.661-1.238 1.589-2.187 2.784-2.848 1.216-.662 2.624-.992 4.224-.992s2.997.33 4.192.992a6.644 6.644 0 0 1 2.784 2.848c.661 1.215.992 2.645.992 4.288 0 1.642-.331 3.082-.992 4.32a6.643 6.643 0 0 1-2.784 2.847c-1.195.662-2.592.992-4.192.992zm-.032-3.105c1.301 0 2.293-.426 2.976-1.28.683-.853 1.024-2.111 1.024-3.776 0-1.642-.341-2.89-1.024-3.743-.683-.875-1.664-1.313-2.944-1.313s-2.272.438-2.976 1.313c-.683.853-1.024 2.1-1.024 3.743 0 1.665.341 2.923 1.024 3.777.683.853 1.664 1.28 2.944 1.28zm20.998-13.12c.555-.042.992.075 1.312.352.32.278.48.694.48 1.248 0 .576-.138 1.003-.416 1.28-.277.278-.778.46-1.504.544l-.96.096c-1.258.128-2.186.555-2.784 1.28-.576.726-.864 1.633-.864 2.72v6.72c0 .62-.192 1.1-.576 1.44-.384.32-.864.48-1.44.48s-1.056-.16-1.44-.48c-.362-.34-.544-.82-.544-1.44V29.92c0-.598.182-1.056.544-1.377.384-.32.854-.48 1.408-.48.555 0 1.003.16 1.344.48.342.3.512.736.512 1.313v1.28c.406-.94 1.003-1.665 1.792-2.177a5.642 5.642 0 0 1 2.688-.863l.448-.032z" fill="#fff"/><path opacity=".6" d="M22.072 24.836c1.27 0 1.904.532 1.904 1.596 0 1.045-.635 1.568-1.904 1.568H13c-.56 0-1.017-.177-1.372-.532a1.722 1.722 0 0 1-.532-1.26c0-.56.196-1.045.588-1.456l6.552-7.336H12.86c-1.27 0-1.904-.523-1.904-1.568 0-1.064.635-1.596 1.904-1.596h8.736c.579 0 1.036.177 1.372.532.355.355.532.784.532 1.288 0 .56-.196 1.045-.588 1.456l-6.524 7.308h5.684z" fill="#fff"/><path opacity=".4" d="M11.09 38.608c1.088 0 1.632.457 1.632 1.369 0 .896-.544 1.344-1.632 1.344H3.314c-.48 0-.872-.152-1.176-.456a1.476 1.476 0 0 1-.456-1.08c0-.48.168-.896.504-1.248l5.616-6.288H3.194c-1.088 0-1.632-.449-1.632-1.345 0-.912.544-1.367 1.632-1.367h7.488c.496 0 .888.152 1.176.456.304.304.456.672.456 1.104 0 .48-.168.895-.504 1.247l-5.592 6.264h4.872z" fill="#fff"/><path opacity=".2" d="M19.274 51.56c.907 0 1.36.38 1.36 1.14 0 .747-.453 1.12-1.36 1.12h-6.48c-.4 0-.726-.126-.98-.38a1.23 1.23 0 0 1-.38-.9c0-.4.14-.746.42-1.04l4.68-5.24h-3.84c-.906 0-1.36-.373-1.36-1.12 0-.76.454-1.14 1.36-1.14h6.24c.414 0 .74.127.98.38.254.254.38.56.38.92 0 .4-.14.747-.42 1.04l-4.66 5.22h4.06z" fill="#fff"/><g filter="url(#a)"><path d="M50.071 56.189c.46-.182.371-.846-.111-.952-8.653-1.895-16.116-8.758-18.71-18.329-2.596-9.57.377-19.263 6.887-25.27.363-.335.103-.953-.385-.878a23.95 23.95 0 0 0-2.65.56C22.476 14.746 15.016 27.757 18.44 40.383c3.423 12.626 16.435 20.086 29.06 16.662.883-.24 1.74-.525 2.571-.855z" fill="#FD8"/></g><path opacity=".5" d="M275.37 9.69a.4.4 0 0 1 .642-.362l2.79 2.146a.4.4 0 0 0 .409.048l3.205-1.455a.4.4 0 0 1 .543.498l-1.18 3.317a.4.4 0 0 0 .082.404l2.374 2.6a.4.4 0 0 1-.307.669l-3.518-.097a.4.4 0 0 0-.359.203l-1.739 3.06a.4.4 0 0 1-.731-.084l-.996-3.376a.4.4 0 0 0-.303-.28l-3.448-.707a.4.4 0 0 1-.146-.721l2.903-1.99a.401.401 0 0 0 .172-.375l-.393-3.498z" fill="#fff"/><path opacity=".6" d="M317.484 30.29a.4.4 0 0 1 .714.18l.483 3.098a.399.399 0 0 0 .263.316l2.961 1.03a.4.4 0 0 1 .049.734l-2.796 1.416a.4.4 0 0 0-.22.349l-.064 3.133a.4.4 0 0 1-.683.274l-2.211-2.222a.4.4 0 0 0-.399-.1l-3 .907a.4.4 0 0 1-.472-.566l1.43-2.789a.4.4 0 0 0-.027-.41l-1.79-2.574a.4.4 0 0 1 .392-.623l3.094.498a.399.399 0 0 0 .382-.153l1.894-2.497z" fill="#fff"/><g opacity=".8" filter="url(#b)"><path d="M307.853 4.903a.4.4 0 0 1 .711.192l.654 4.667c.02.147.12.27.259.32l4.427 1.617a.4.4 0 0 1 .038.735l-4.237 2.064a.4.4 0 0 0-.225.345l-.169 4.71a.4.4 0 0 1-.688.264l-3.272-3.393a.398.398 0 0 0-.397-.107l-4.532 1.295a.4.4 0 0 1-.463-.572l2.215-4.16a.402.402 0 0 0-.021-.412l-2.632-3.91a.4.4 0 0 1 .401-.617l4.641.82a.4.4 0 0 0 .385-.146l2.905-3.712z" fill="#fff"/></g><defs><filter id="a" x="13.608" y="6.754" width="40.764" height="55.122" filterUnits="userSpaceOnUse" color-interpolation-filters="sRGB"><feFlood flood-opacity="0" result="BackgroundImageFix"/><feColorMatrix in="SourceAlpha" values="0 0 0 0 0 0 0 0 0 0 0 0 0 0 0 0 0 0 127 0"/><feOffset/><feGaussianBlur stdDeviation="2"/><feColorMatrix values="0 0 0 0 1 0 0 0 0 0.866667 0 0 0 0 0.533333 0 0 0 0.3 0"/><feBlend in2="BackgroundImageFix" result="effect1_dropShadow"/><feBlend in="SourceGraphic" in2="effect1_dropShadow" result="shape"/></filter><filter id="b" x="295.452" y=".75" width="22.715" height="23.19" filterUnits="userSpaceOnUse" color-interpolation-filters="sRGB"><feFlood flood-opacity="0" result="BackgroundImageFix"/><feColorMatrix in="SourceAlpha" values="0 0 0 0 0 0 0 0 0 0 0 0 0 0 0 0 0 0 127 0"/><feOffset/><feGaussianBlur stdDeviation="2"/><feColorMatrix values="0 0 0 0 1 0 0 0 0 1 0 0 0 0 1 0 0 0 0.35 0"/><feBlend in2="BackgroundImageFix" result="effect1_dropShadow"/><feBlend in="SourceGraphic" in2="effect1_dropShadow" result="shape"/></filter></defs></svg>